# xmcd CD database file
#
# Track frame offsets:
#	150
#	20224
#	45145
#	63927
#	82273
#	103565
#	119793
#	139624
#	156736
#	171167
#	187712
#	211096
#	235125
#	245721
#	262443
#
# Disc length: 3704 seconds
#
# Revision: 0
# Processed by: cddbd v1.5.2PL0 Copyright (c) Steve Scherf et al.
# Submitted via: CDex 1.51
#
DISCID=db0e760f
DTITLE=Various Artist - Salsa Fever CD1
DYEAR=1900
DGENRE=Salsa
TTITLE0=Yuri Buenaventure - Salsa
TTITLE1=Africando - Ketukuba
TTITLE2=Puerto Rican Power - Tu Carinito
TTITLE3=Los Van Van - Esto Te Pone La Cabeza Mala
TTITLE4=Sonora Carruseles - Michela
TTITLE5=Yumuri y Su Hermanos - La Cuenta
TTITLE6=Joe Arroyo - La Noche
TTITLE7=Eddie Palmieri - Nunca Contigo
TTITLE8=Cheo Feliciano - Oye Como Va
TTITLE9=Quantic and Nickodemus - Mi Swing es Tropical
TTITLE10=Adalberto Alvarez - Somos el Son de Cuba
TTITLE11=Afro Cuban All Stars y Felix Baloy - Yo soy el del setimiento
TTITLE12=Beny More - Francisco Guyabal
TTITLE13=Omara Portuondo - Yo si como candela
TTITLE14=Joe Cuba Sextet - Do you feel it
EXTD=
EXTT0=
EXTT1=
EXTT2=
EXTT3=
EXTT4=
EXTT5=
EXTT6=
EXTT7=
EXTT8=
EXTT9=
EXTT10=
EXTT11=
EXTT12=
EXTT13=
EXTT14=
PLAYORDER=
